<svg xmlns="http://www.w3.org/2000/svg" fill="none" viewBox="0 0.01 56 55.99">
<path d="M50.75 14.0059H49V27.7652C49 33.6824 44.2312 38.4949 38.3687 38.4949H14V43.7449C14 46.6434 16.3516 48.9949 19.25 48.9949H44.8875L53.1562 55.6121C53.4734 55.8637 53.8672 55.9949 54.25 55.9949C54.5016 55.9949 54.7641 55.9402 55.0047 55.8199C55.6062 55.5246 56 54.9121 56 54.2449V19.2559C56 16.3574 53.6484 14.0059 50.75 14.0059Z" fill="#D1CEFE"/>
<path d="M38.5 0.00585938H7C3.13906 0.00585938 0 3.14492 0 7.00586V42.0059C0 42.684 0.39375 43.2965 1.00625 43.5918C1.23594 43.7012 1.49844 43.7559 1.75 43.7559C2.15469 43.7559 2.54844 43.6246 2.86563 43.3512L12.8844 35.0059H38.5C42.3609 35.0059 45.5 31.8668 45.5 28.0059V7.00586C45.5 3.14492 42.3609 0.00585938 38.5 0.00585938Z" fill="#5A50FE"/>
<path d="M33.25 10.5059H12.25C11.2875 10.5059 10.5 11.2934 10.5 12.2559C10.5 13.2184 11.2875 14.0059 12.25 14.0059H33.25C34.2125 14.0059 35 13.2184 35 12.2559C35 11.2934 34.2125 10.5059 33.25 10.5059Z" fill="#FAFAFA"/>
<path d="M26.25 17.5059H12.25C11.2875 17.5059 10.5 18.2934 10.5 19.2559C10.5 20.2184 11.2875 21.0059 12.25 21.0059H26.25C27.2125 21.0059 28 20.2184 28 19.2559C28 18.2934 27.2125 17.5059 26.25 17.5059Z" fill="#FAFAFA"/>
</svg>