<svg xmlns="http://www.w3.org/2000/svg" fill="none" viewBox="0 3.39 56 49.22">
<path d="M29.6406 32.9219C32.3589 32.9219 34.5625 30.7183 34.5625 28C34.5625 25.2817 32.3589 23.0781 29.6406 23.0781C26.9223 23.0781 24.7188 25.2817 24.7188 28C24.7188 30.7183 26.9223 32.9219 29.6406 32.9219Z" fill="#DEAAFF"/>
<path d="M1.64062 44.4062H3.28125V47.6875C3.28125 50.4015 5.48909 52.6094 8.20312 52.6094H51.0781C53.7922 52.6094 56 50.4015 56 47.6875V8.3125C56 5.59847 53.7922 3.39062 51.0781 3.39062H8.20312C5.48909 3.39062 3.28125 5.59847 3.28125 8.3125V11.5938H1.64062C0.733797 11.5938 0 12.3275 0 13.2344V23.0781C0 23.985 0.733797 24.7188 1.64062 24.7188H3.28125V31.2812H1.64062C0.733797 31.2812 0 32.015 0 32.9219V42.7656C0 43.6725 0.733797 44.4062 1.64062 44.4062ZM46.0469 24.7188C46.0469 23.8119 46.7807 23.0781 47.6875 23.0781C48.5943 23.0781 49.3281 23.8119 49.3281 24.7188V31.2812C49.3281 32.1881 48.5943 32.9219 47.6875 32.9219C46.7807 32.9219 46.0469 32.1881 46.0469 31.2812V24.7188ZM21.4375 28C21.4375 26.3309 21.9443 24.7804 22.8041 23.4835L15.3556 16.0349C14.7148 15.3941 14.7148 14.3558 15.3556 13.715C15.9964 13.0741 17.0347 13.0741 17.6755 13.715L25.1241 21.1635C26.4211 20.3037 27.9716 19.7969 29.6406 19.7969C31.3097 19.7969 32.8602 20.3037 34.1572 21.1635L41.6057 13.715C42.2465 13.0741 43.2848 13.0741 43.9257 13.715C44.5665 14.3558 44.5665 15.3941 43.9257 16.0349L36.4771 23.4835C37.3369 24.7804 37.8438 26.3309 37.8438 28C37.8438 29.6691 37.3369 31.2196 36.4771 32.5165L43.9257 39.9651C44.5665 40.6059 44.5665 41.6442 43.9257 42.285C43.6052 42.6055 43.1854 42.7657 42.7657 42.7657C42.3461 42.7657 41.9262 42.6055 41.6058 42.285L34.1573 34.8365C32.8602 35.6963 31.3097 36.2031 29.6406 36.2031C27.9716 36.2031 26.4211 35.6963 25.1241 34.8365L17.6755 42.285C17.3551 42.6055 16.9353 42.7657 16.5156 42.7657C16.096 42.7657 15.6761 42.6055 15.3557 42.285C14.7149 41.6442 14.7149 40.6059 15.3557 39.9651L22.8043 32.5165C21.9443 31.2196 21.4375 29.6691 21.4375 28V28Z" fill="#DEAAFF"/>
</svg>