<?xml version="1.0" encoding="utf-8"?>
<!-- Generator: Adobe Illustrator 23.0.5, SVG Export Plug-In . SVG Version: 6.00 Build 0)  -->
<svg version="1.1" id="Layer_1" xmlns="http://www.w3.org/2000/svg" xmlns:xlink="http://www.w3.org/1999/xlink" x="0px" y="0px"
	 viewBox="0 0 841.9 595.3" style="enable-background:new 0 0 841.9 595.3;" xml:space="preserve">
<style type="text/css">
	.st0{fill:none;stroke:#1D1D1B;stroke-width:0.8832;stroke-miterlimit:10;}
	.st1{fill:none;stroke:#1D1D1B;stroke-width:0.935;stroke-miterlimit:10;}
	.st2{fill:#282E69;}
	.st3{fill:#008080;}
	.st4{fill:#1877F2;}
	.st5{fill:#FF8B00;}
	.st6{fill:#FFD700;}
	.st7{fill:none;stroke:#1D1D1B;stroke-miterlimit:10;}
	.st8{fill:none;}
	.st9{fill:#009540;}
	.st10{fill:#1D1D1B;}
	.st11{fill:#FFEC00;}
	.st12{fill:url(#SVGID_1_);}
	.st13{fill:url(#SVGID_2_);}
	.st14{fill:url(#SVGID_3_);}
	.st15{fill:url(#SVGID_4_);}
	.st16{fill:url(#SVGID_5_);}
	.st17{fill:url(#SVGID_6_);}
	.st18{fill:url(#SVGID_7_);}
	.st19{fill:url(#SVGID_8_);}
	.st20{fill:none;stroke:#1D1D1B;stroke-width:0.5;stroke-miterlimit:10;}
	.st21{fill:#FFFFFF;}
	.st22{fill:#0074D9;}
	.st23{fill:#D4AF37;}
	.st24{fill:#4A57CA;}
	.st25{fill:#FE8E4B;}
</style>
<path class="st8" d="M490.1,155.4c-0.3-0.4-0.6-0.8-0.9-1.1l0.8-0.7C490.1,154.2,490.1,154.8,490.1,155.4z"/>
<path class="st22" d="M513.9,133.6l-21.1,17.7c-1-10.9-4.6-21.5-10.4-30.8c-6.8-10.9-16.6-19.7-27.9-25.4
	c13.3,3.7,25.7,9.7,36.7,17.5C499.7,118.5,507.3,125.6,513.9,133.6z"/>
<path class="st8" d="M490.1,155.4c-0.3-0.4-0.6-0.8-0.9-1.1l0.8-0.7C490.1,154.2,490.1,154.8,490.1,155.4z"/>
<g>
	<path class="st22" d="M392.4,324.3c-14.3-3.7-27.5-10.1-39.2-18.4c-30-21.6-49.5-56.7-49.5-96.4c0-54.5,36.7-100.4,86.7-114.4
		c-22.3,11.4-37.5,34.4-38.4,60.2c0,0.9-0.1,1.7-0.1,2.6c0,0.5,0,1,0,1.4c-10,14.1-15.9,31.3-15.9,49.9c0,18.3,5.7,35.3,15.4,49.3
		c0,0.7,0,1.4,0,2.1c0,23.5,11.7,44.3,29.5,56.9C384.7,320.2,388.5,322.5,392.4,324.3z"/>
	<path class="st9" d="M466.6,209.3c-7.5-6.5-16.5-11.3-26.4-14h0c-0.7-0.2-1.4-0.4-2.1-0.5v-70.5c9.8,1.8,19,5.2,27.3,9.9
		c9.1,5.2,17.2,12,23.9,20.1c0.3,0.4,0.6,0.8,0.9,1.1c0-0.6,0-1.2-0.1-1.9c-0.7-11.5-4.4-22.3-10.2-31.6
		c-9.3-14.8-24.2-25.8-41.8-29.9V71.4h-31.5v20.8c-28.9,7-50.5,32.5-51.6,63.2c0,0.8-0.1,1.7-0.1,2.5c0,20.5,9.2,38.9,23.6,51.3
		c8,6.8,17.5,11.8,28,14.4v70.5c-9.8-1.8-18.9-5.3-27.2-10.1c-9.4-5.4-17.6-12.6-24.3-21c0.4,12.1,4,23.3,10,33
		c9.2,14.9,24.1,26,41.6,30.2v17.5h31.5v-17.4c28.2-6.6,49.6-30.9,51.9-60.5c0.1-0.9,0.1-1.9,0.2-2.8c0-0.8,0.1-1.7,0.1-2.5
		C490.2,240,481,221.6,466.6,209.3z M406.6,189.1c-11.3-5.8-19.1-17.6-19.1-31.2c0-13.6,7.7-25.4,19.1-31.2V189.1z M438.1,292v-62.9
		c11.6,5.7,19.6,17.6,19.6,31.4C457.6,274.4,449.6,286.3,438.1,292z"/>
	<path class="st23" d="M490.2,260.6c0-20.5-9.2-38.9-23.6-51.3c-7.5-6.5-16.5-11.3-26.4-14h0c-0.7-0.2-1.4-0.4-2.1-0.5v-70.5
		c9.8,1.8,19,5.2,27.3,9.9c9.1,5.2,17.2,12,23.9,20.1l0.8-0.7c-0.7-11.5-4.4-22.3-10.2-31.6c-9.3-14.8-24.2-25.8-41.8-29.9V71.4
		h-31.5v20.8c-28.9,7-50.5,32.5-51.6,63.2c0,0.8-0.1,1.7-0.1,2.5c0,20.5,9.2,38.9,23.6,51.3c8,6.8,17.5,11.8,28,14.4v70.5
		c-9.8-1.8-18.9-5.3-27.2-10.1c-9.4-5.4-17.6-12.6-24.3-21c0.4,12.1,4,23.3,10,33c9.2,14.9,24.1,26,41.6,30.2v17.5h31.5v-17.4
		c28.2-6.6,49.6-30.9,51.9-60.5l-1.3-1.1c0.5-0.6,1-1.2,1.4-1.7C490.2,262.2,490.2,261.4,490.2,260.6z M406.6,189.1
		c-11.3-5.8-19.1-17.6-19.1-31.2c0-13.6,7.7-25.4,19.1-31.2V189.1z M438.1,292v-62.9c11.6,5.7,19.6,17.6,19.6,31.4
		C457.6,274.4,449.6,286.3,438.1,292z"/>
	<path class="st22" d="M513.6,285.7c-15.5,18.5-36.6,32.3-60.7,38.6c8.7-4.2,16.5-10.1,23-17.6c9.5-10.9,15.2-24.2,16.8-38.5
		L513.6,285.7z"/>
	<path class="st8" d="M490.1,263.1c0,0.9-0.1,1.9-0.2,2.8l-1.3-1.1C489.2,264.2,489.7,263.7,490.1,263.1z"/>
	<path class="st8" d="M490.1,263.1c0,0.9-0.1,1.9-0.2,2.8l-1.3-1.1C489.2,264.2,489.7,263.7,490.1,263.1z"/>
	<g>
		<path class="st23" d="M193.7,432v-63.2h17.9V432H193.7z"/>
		<path class="st23" d="M224.3,432v-63.2H239l34.7,42.1h-6.9v-42.1h17.5V432h-14.7l-34.8-42.1h6.9V432H224.3z"/>
		<path class="st23" d="M328.4,433.2c-5,0-9.6-0.8-13.8-2.4c-4.2-1.6-7.9-3.8-11-6.8c-3.1-2.9-5.6-6.4-7.3-10.4
			c-1.7-4-2.6-8.5-2.6-13.3c0-4.8,0.9-9.2,2.6-13.3c1.7-4,4.2-7.5,7.3-10.4c3.1-2.9,6.8-5.2,11-6.8c4.2-1.6,8.8-2.4,13.8-2.4
			c5.8,0,11.1,1,15.7,3c4.6,2,8.4,5,11.5,8.9l-11.4,10.3c-2-2.4-4.3-4.2-6.8-5.5c-2.5-1.3-5.2-1.9-8.1-1.9c-2.6,0-5,0.4-7.1,1.3
			c-2.2,0.8-4,2.1-5.6,3.7c-1.5,1.6-2.7,3.5-3.6,5.7c-0.9,2.2-1.3,4.7-1.3,7.4c0,2.7,0.4,5.2,1.3,7.4c0.9,2.2,2.1,4.1,3.6,5.7
			c1.5,1.6,3.4,2.8,5.6,3.7c2.2,0.8,4.5,1.3,7.1,1.3c2.9,0,5.7-0.6,8.1-1.9c2.5-1.3,4.7-3.1,6.8-5.6l11.4,10.3
			c-3.1,3.9-6.9,6.9-11.5,8.9C339.5,432.2,334.3,433.2,328.4,433.2z"/>
		<path class="st22" d="M393.7,433.2c-5,0-9.6-0.8-13.8-2.4c-4.2-1.6-7.9-3.8-11-6.8c-3.1-2.9-5.6-6.4-7.3-10.4
			c-1.7-4-2.6-8.5-2.6-13.3c0-4.8,0.9-9.2,2.6-13.3c1.7-4,4.2-7.5,7.3-10.4c3.1-2.9,6.8-5.2,11-6.8c4.2-1.6,8.8-2.4,13.8-2.4
			c5.8,0,11.1,1,15.7,3c4.6,2,8.4,5,11.5,8.9l-11.4,10.3c-2-2.4-4.3-4.2-6.8-5.5c-2.5-1.3-5.2-1.9-8.1-1.9c-2.6,0-5,0.4-7.1,1.3
			c-2.2,0.8-4,2.1-5.6,3.7c-1.5,1.6-2.7,3.5-3.6,5.7c-0.9,2.2-1.3,4.7-1.3,7.4c0,2.7,0.4,5.2,1.3,7.4c0.9,2.2,2.1,4.1,3.6,5.7
			c1.5,1.6,3.4,2.8,5.6,3.7c2.2,0.8,4.5,1.3,7.1,1.3c2.9,0,5.7-0.6,8.1-1.9c2.5-1.3,4.7-3.1,6.8-5.6l11.4,10.3
			c-3.1,3.9-6.9,6.9-11.5,8.9C404.7,432.2,399.5,433.2,393.7,433.2z"/>
		<path class="st22" d="M420.1,432l27.9-63.2h17.6l28,63.2H475l-21.8-54.4h7L438.4,432H420.1z M435.4,419.6l4.6-13.1h30.9l4.6,13.1
			H435.4z"/>
		<path class="st22" d="M520.8,433.2c-5.2,0-10.2-0.6-15-1.9s-8.6-2.9-11.6-4.9l5.9-13.3c2.8,1.8,6.1,3.3,9.8,4.5s7.4,1.8,11.1,1.8
			c2.5,0,4.5-0.2,6-0.6c1.5-0.4,2.6-1,3.2-1.8c0.7-0.8,1-1.7,1-2.8c0-1.4-0.7-2.5-2-3.3c-1.3-0.8-3.1-1.5-5.2-2.1
			c-2.1-0.6-4.5-1.1-6.9-1.6c-2.5-0.5-5-1.2-7.6-2c-2.6-0.8-4.9-2-7-3.3c-2.1-1.4-3.8-3.2-5.1-5.4c-1.3-2.2-1.9-5-1.9-8.4
			c0-3.7,1-7.1,3.1-10.2c2-3.1,5.1-5.5,9.3-7.4c4.2-1.9,9.3-2.8,15.5-2.8c4.2,0,8.2,0.5,12.2,1.4c4,0.9,7.5,2.3,10.6,4.2l-5.4,13.2
			c-3-1.7-6-2.9-8.9-3.7c-2.9-0.8-5.8-1.2-8.6-1.2c-2.5,0-4.5,0.3-6,0.8c-1.5,0.5-2.6,1.2-3.2,2.1c-0.7,0.8-1,1.7-1,2.7
			c0,1.4,0.7,2.6,2,3.4c1.3,0.8,3,1.5,5.1,2c2.1,0.5,4.4,1,7,1.6c2.6,0.5,5.1,1.2,7.6,2c2.5,0.8,4.9,1.9,7,3.2s3.9,3.1,5.2,5.3
			c1.3,2.2,2,4.9,2,8.3c0,3.7-1,7.1-3.1,10.2c-2.1,3.1-5.2,5.6-9.3,7.4S527.1,433.2,520.8,433.2z"/>
		<path class="st22" d="M575,432h-17.9v-63.2H575V432z M600.5,407.3h-26.9v-14.8h26.9V407.3z M599.3,368.8h17.9V432h-17.9V368.8z"/>
	</g>
	<path class="st23" d="M621.1,443.2v40.6c0,0,0,0-0.1,0H205.8c-3.6,0-6.6-1.3-6.6-3l0,0c0-1.6,2.9-3,6.6-3h47.9c4,0,7.3-1.5,7.3-3.3
		l0,0c0-1.8-3.3-3.3-7.3-3.3h-24.7c-2.5,0-4.5-0.9-4.5-2l0,0c0-1.1,2-2,4.5-2h88.5c2,0,3.8-0.4,5.2-1c1.4-0.6,2.3-1.5,2.1-2.5
		c-0.2-1.8-3.7-3.1-7.6-3.1l-98.3,0.1c-3.3,0-6-1.2-6-2.7l0,0c0-1.5,2.7-2.7,6-2.7l50.8-0.1c2,0,3.8-0.4,5.2-1
		c1.3-0.6,2.1-1.4,2.1-2.4c0-1.8-3.3-3.3-7.3-3.3h-73.3c-3.1,0-5.7-1.2-5.7-2.6l0,0c0-1.4,2.5-2.6,5.7-2.6L621.1,443.2
		C621.1,443.1,621.1,443.1,621.1,443.2z"/>
	<g>
		<path class="st22" d="M344.7,468.9v-13h2.5l5.5,9.2h-1.3l5.4-9.2h2.5v13h-2.8l0-8.7h0.6l-4.4,7.3h-1.3l-4.4-7.3h0.6v8.7H344.7z"/>
		<path class="st22" d="M375.3,469.1c-1,0-2-0.2-2.8-0.5c-0.9-0.3-1.6-0.8-2.3-1.4s-1.1-1.3-1.5-2.1c-0.4-0.8-0.5-1.7-0.5-2.7
			c0-1,0.2-1.9,0.5-2.7c0.4-0.8,0.9-1.5,1.5-2.1s1.4-1.1,2.3-1.4c0.9-0.3,1.8-0.5,2.8-0.5s2,0.2,2.8,0.5c0.9,0.3,1.6,0.8,2.3,1.4
			s1.1,1.3,1.5,2.1c0.4,0.8,0.5,1.7,0.5,2.7c0,1-0.2,1.9-0.5,2.7c-0.4,0.8-0.9,1.5-1.5,2.1s-1.4,1.1-2.3,1.4
			C377.2,469,376.3,469.1,375.3,469.1z M375.3,466.6c0.6,0,1.1-0.1,1.6-0.3c0.5-0.2,0.9-0.5,1.3-0.9c0.4-0.4,0.7-0.8,0.9-1.3
			s0.3-1.1,0.3-1.7c0-0.6-0.1-1.2-0.3-1.7s-0.5-0.9-0.9-1.3c-0.4-0.4-0.8-0.7-1.3-0.9c-0.5-0.2-1-0.3-1.6-0.3s-1.1,0.1-1.6,0.3
			c-0.5,0.2-0.9,0.5-1.3,0.9s-0.7,0.8-0.9,1.3s-0.3,1.1-0.3,1.7c0,0.6,0.1,1.2,0.3,1.7s0.5,0.9,0.9,1.3c0.4,0.4,0.8,0.7,1.3,0.9
			C374.1,466.5,374.7,466.6,375.3,466.6z"/>
		<path class="st22" d="M391.2,468.9v-13h2.5l7.7,9.4h-1.2v-9.4h3v13h-2.5l-7.7-9.4h1.2v9.4H391.2z"/>
		<path class="st22" d="M415.8,466.5h7.1v2.4h-10.1v-13h9.8v2.4h-6.8V466.5z M415.5,461.1h6.3v2.4h-6.3V461.1z"/>
		<path class="st22" d="M434.9,468.9v-5.3l0.7,1.8l-5.7-9.5h3.2l4.4,7.3h-1.8l4.4-7.3h2.9l-5.7,9.5l0.7-1.8v5.3H434.9z"/>
		<path class="st22" d="M465.3,468.9v-10.6h-4.2v-2.5h11.3v2.5h-4.2v10.6H465.3z"/>
		<path class="st22" d="M480.6,468.9v-13h5.6c1.2,0,2.2,0.2,3,0.6c0.8,0.4,1.5,0.9,2,1.6c0.5,0.7,0.7,1.5,0.7,2.5
			c0,1-0.2,1.8-0.7,2.5s-1.1,1.2-2,1.6c-0.8,0.4-1.8,0.5-3,0.5h-4l1.4-1.3v4.9H480.6z M483.6,464.3l-1.4-1.4h3.8
			c0.9,0,1.6-0.2,2.1-0.6c0.5-0.4,0.7-1,0.7-1.7s-0.2-1.3-0.7-1.7s-1.2-0.6-2.1-0.6h-3.8l1.4-1.4V464.3z M488.9,468.9l-3.3-4.7h3.2
			l3.3,4.7H488.9z"/>
		<path class="st22" d="M499.1,468.9l5.8-13h3l5.8,13h-3.2l-4.8-11.5h1.2l-4.8,11.5H499.1z M502,466.1l0.8-2.3h6.7l0.8,2.3H502z"/>
		<path class="st22" d="M521.6,468.9v-13h2.5l7.7,9.4h-1.2v-9.4h3v13H531l-7.7-9.4h1.2v9.4H521.6z"/>
		<path class="st22" d="M547.5,469.1c-1,0-2-0.1-3-0.4c-1-0.3-1.7-0.6-2.3-1.1l1-2.3c0.5,0.4,1.2,0.7,2,1s1.5,0.4,2.3,0.4
			c0.6,0,1.1-0.1,1.4-0.2c0.4-0.1,0.6-0.3,0.8-0.5c0.2-0.2,0.3-0.4,0.3-0.7c0-0.3-0.1-0.6-0.4-0.8c-0.3-0.2-0.6-0.4-1.1-0.5
			c-0.5-0.1-0.9-0.3-1.5-0.4c-0.5-0.1-1.1-0.3-1.6-0.4c-0.5-0.2-1-0.4-1.5-0.7c-0.5-0.3-0.8-0.6-1.1-1.1c-0.3-0.5-0.4-1-0.4-1.7
			c0-0.7,0.2-1.4,0.6-2c0.4-0.6,1-1.1,1.8-1.5c0.8-0.4,1.8-0.5,3.1-0.5c0.8,0,1.6,0.1,2.4,0.3c0.8,0.2,1.5,0.5,2.1,0.9l-0.9,2.3
			c-0.6-0.3-1.2-0.6-1.8-0.8c-0.6-0.2-1.2-0.3-1.8-0.3c-0.6,0-1.1,0.1-1.4,0.2c-0.4,0.1-0.6,0.3-0.8,0.5c-0.2,0.2-0.3,0.5-0.3,0.7
			c0,0.3,0.1,0.6,0.4,0.8c0.3,0.2,0.6,0.4,1.1,0.5c0.4,0.1,0.9,0.2,1.5,0.4c0.5,0.1,1.1,0.3,1.6,0.4c0.5,0.2,1,0.4,1.5,0.7
			c0.4,0.3,0.8,0.6,1.1,1.1c0.3,0.5,0.4,1,0.4,1.7c0,0.7-0.2,1.4-0.6,2c-0.4,0.6-1,1.1-1.8,1.5C549.7,469,548.7,469.1,547.5,469.1z"
			/>
		<path class="st22" d="M564.6,468.9h-3v-13h9.8v2.4h-6.8V468.9z M564.4,461.8h6.2v2.4h-6.2V461.8z"/>
		<path class="st22" d="M583,466.5h7.1v2.4H580v-13h9.8v2.4H583V466.5z M582.8,461.1h6.3v2.4h-6.3V461.1z"/>
		<path class="st22" d="M599,468.9v-13h5.6c1.2,0,2.2,0.2,3,0.6c0.8,0.4,1.5,0.9,2,1.6c0.5,0.7,0.7,1.5,0.7,2.5c0,1-0.2,1.8-0.7,2.5
			s-1.1,1.2-2,1.6c-0.8,0.4-1.8,0.5-3,0.5h-4l1.4-1.3v4.9H599z M602.1,464.3l-1.4-1.4h3.8c0.9,0,1.6-0.2,2.1-0.6
			c0.5-0.4,0.7-1,0.7-1.7s-0.2-1.3-0.7-1.7s-1.2-0.6-2.1-0.6h-3.8l1.4-1.4V464.3z M607.3,468.9l-3.3-4.7h3.2l3.3,4.7H607.3z"/>
	</g>
</g>
</svg>
