<svg xmlns="http://www.w3.org/2000/svg" fill="none" viewBox="0.13 0 53.73 56">
<path d="M51.2761 28.7255C51.0508 28.2645 51.0508 27.7358 51.2761 27.2749L53.3647 23.0022C54.5276 20.6232 53.6062 17.7877 51.2672 16.5466L47.0661 14.3175C46.6129 14.0771 46.3021 13.6493 46.2134 13.1441L45.3918 8.45966C44.9343 5.85152 42.5217 4.0989 39.9003 4.46979L35.1914 5.13588C34.6832 5.20763 34.1806 5.04422 33.8119 4.68755L30.3938 1.38095C28.4906 -0.460261 25.5091 -0.46037 23.606 1.38095L20.1878 4.68788C19.819 5.04466 19.3164 5.20774 18.8083 5.13621L14.0994 4.47012C11.4771 4.09901 9.06541 5.85184 8.6079 8.45999L7.78628 13.1442C7.69758 13.6495 7.38685 14.0772 6.93371 14.3177L2.73264 16.5468C0.393562 17.7878 -0.527808 20.6235 0.63506 23.0025L2.72356 27.2751C2.94887 27.7361 2.94887 28.2648 2.72356 28.7257L0.634951 32.9983C-0.527917 35.3773 0.393452 38.2129 2.73253 39.4539L6.9336 41.683C7.38685 41.9234 7.69758 42.3513 7.78628 42.8565L8.6079 47.5409C9.0244 49.9152 11.0603 51.5803 13.4001 51.5801C13.6306 51.5801 13.8644 51.5639 14.0995 51.5306L18.8084 50.8645C19.3162 50.7925 19.8191 50.9562 20.1879 51.3129L23.606 54.6195C24.5577 55.5402 25.7786 56.0004 26.9998 56.0003C28.2208 56.0002 29.4424 55.54 30.3937 54.6195L33.8119 51.3129C34.1807 50.9562 34.6834 50.7932 35.1914 50.8645L39.9003 51.5306C42.5229 51.9016 44.9343 50.1489 45.3918 47.5408L46.2135 42.8566C46.3022 42.3513 46.613 41.9235 47.0661 41.683L51.2672 39.4539C53.6062 38.213 54.5276 35.3772 53.3647 32.9982L51.2761 28.7255ZM20.5401 13.4659C23.8051 13.4659 26.4615 16.1223 26.4615 19.3874C26.4615 22.6524 23.8051 25.3088 20.5401 25.3088C17.275 25.3088 14.6187 22.6524 14.6187 19.3874C14.6187 16.1223 17.275 13.4659 20.5401 13.4659ZM17.4837 39.8C17.1684 40.1153 16.7551 40.2731 16.3419 40.2731C15.9287 40.2731 15.5152 40.1154 15.2 39.8C14.5693 39.1694 14.5693 38.1468 15.2 37.5162L36.5159 16.2003C37.1464 15.5696 38.169 15.5696 38.7997 16.2003C39.4303 16.831 39.4303 17.8535 38.7997 18.4841L17.4837 39.8ZM33.4594 42.5346C30.1943 42.5346 27.538 39.8782 27.538 36.6132C27.538 33.3481 30.1943 30.6917 33.4594 30.6917C36.7244 30.6917 39.3808 33.3481 39.3808 36.6132C39.3808 39.8782 36.7244 42.5346 33.4594 42.5346Z" fill="#5EE1C9"/>
</svg>