<svg xmlns="http://www.w3.org/2000/svg" fill="none" viewBox="0 2.33 56 51.33"><path d="M40.2964 11.6878L35.3427 3.20144C35.1071 2.79778 34.7197 2.50378 34.2671 2.38711C33.8167 2.27511 33.3337 2.34044 32.9324 2.58078L17.7891 11.6668L40.2964 11.6878Z" fill="#095DFF"/><path d="M7 13.9993C5.71667 13.9993 4.66667 12.9493 4.66667 11.666C4.66667 10.3827 5.71667 9.33268 7 9.33268H14.8633L22.6567 4.66602H7C3.54667 4.66602 0.676667 7.18602 0.116667 10.4993C0.07 10.686 0 10.8727 0 11.0827V46.666C0 50.516 3.15 53.666 7 53.666H46.6667C49.2333 53.666 51.3333 51.566 51.3333 48.9993V44.3327H45.5C39.7133 44.3327 35 39.6193 35 33.8327C35 28.046 39.7133 23.3327 45.5 23.3327H51.3333V18.666C51.3333 16.0993 49.2333 13.9993 46.6667 13.9993H7ZM44.3333 9.33268C44.3333 6.97602 42.5833 5.01602 40.2967 4.71268L44.3333 11.666V9.33268Z" fill="#095DFF"/><path d="M54.25 26.834H45.5C41.6407 26.834 38.5 29.9747 38.5 33.834C38.5 37.6933 41.6407 40.834 45.5 40.834H54.25C55.216 40.834 56 40.05 56 39.084V28.584C56 27.618 55.216 26.834 54.25 26.834ZM45.5 36.1673C44.212 36.1673 43.1667 35.122 43.1667 33.834C43.1667 32.546 44.212 31.5007 45.5 31.5007C46.788 31.5007 47.8333 32.546 47.8333 33.834C47.8333 35.122 46.788 36.1673 45.5 36.1673Z" fill="#095DFF"/></svg>