<svg width="40" height="40" viewBox="0 0 40 40" fill="none" xmlns="http://www.w3.org/2000/svg">
<circle cx="20" cy="20" r="19.75" fill="#F3F4F6" stroke="#D2D5DB" stroke-width="0.5"/>
<g clip-path="url(#clip0_5486_328)">
<path d="M19.554 29.6003C17.8315 29.6003 16.429 28.1986 16.429 26.4753C16.429 26.1303 16.709 25.8503 17.054 25.8503C17.399 25.8503 17.679 26.1303 17.679 26.4753C17.679 27.5095 18.5206 28.3503 19.554 28.3503C20.5873 28.3503 21.429 27.5095 21.429 26.4753C21.429 26.1303 21.709 25.8503 22.054 25.8503C22.399 25.8503 22.679 26.1303 22.679 26.4753C22.679 28.1986 21.2765 29.6003 19.554 29.6003Z" fill="#6D717F"/>
<path d="M26.429 27.1003H12.679C11.8748 27.1003 11.2207 26.4461 11.2207 25.642C11.2207 25.2152 11.4066 24.8111 11.7307 24.5336C11.7516 24.5153 11.774 24.4986 11.7973 24.4835C13.0206 23.416 13.7207 21.8802 13.7207 20.2585V17.9335C13.7207 14.717 16.3382 12.1003 19.554 12.1003C19.6873 12.1003 19.8315 12.1027 19.9649 12.1253C20.3056 12.1819 20.5357 12.5045 20.479 12.8444C20.4224 13.1844 20.094 13.4145 19.7598 13.3577C19.6931 13.3469 19.6199 13.3503 19.554 13.3503C17.0274 13.3503 14.9707 15.4061 14.9707 17.9335V20.2585C14.9707 22.2719 14.0881 24.177 12.5516 25.4844C12.5391 25.4944 12.5282 25.5036 12.5148 25.5127C12.4924 25.5411 12.4707 25.5845 12.4707 25.642C12.4707 25.7552 12.5658 25.8503 12.679 25.8503H26.429C26.5424 25.8503 26.6374 25.7552 26.6374 25.642C26.6374 25.5835 26.6158 25.5411 26.5924 25.5127C26.5799 25.5036 26.5691 25.4944 26.5565 25.4844C25.0191 24.1761 24.1374 22.2719 24.1374 20.2585V19.3503C24.1374 19.0053 24.4174 18.7253 24.7624 18.7253C25.1074 18.7253 25.3874 19.0053 25.3874 19.3503V20.2585C25.3874 21.8811 26.0883 23.4177 27.3132 24.4861C27.3357 24.5011 27.3573 24.517 27.3773 24.5345C27.7016 24.8111 27.8874 25.2152 27.8874 25.642C27.8874 26.4461 27.2333 27.1003 26.429 27.1003Z" fill="#6D717F"/>
<path d="M25.3874 17.9335C23.0899 17.9335 21.2207 16.0645 21.2207 13.767C21.2207 11.4695 23.0899 9.60027 25.3874 9.60027C27.6849 9.60027 29.554 11.4695 29.554 13.767C29.554 16.0645 27.6849 17.9335 25.3874 17.9335ZM25.3874 10.8503C23.779 10.8503 22.4707 12.1586 22.4707 13.767C22.4707 15.3753 23.779 16.6835 25.3874 16.6835C26.9957 16.6835 28.304 15.3753 28.304 13.767C28.304 12.1586 26.9957 10.8503 25.3874 10.8503Z" fill="#6D717F"/>
</g>
<defs>
<clipPath id="clip0_5486_328">
<rect width="20" height="20" fill="white" transform="translate(10.4004 9.60027)"/>
</clipPath>
</defs>
</svg>
