<svg width="17" height="15" viewBox="0 0 17 15" fill="none" xmlns="http://www.w3.org/2000/svg">
<path d="M15.2083 15H1.45828C0.654144 15 0 14.3459 0 13.5417C0 13.1149 0.185852 12.7109 0.509949 12.4333C0.530853 12.415 0.553284 12.3984 0.57663 12.3833C1.79993 11.3158 2.5 9.77997 2.5 8.15826V5.83328C2.5 2.61673 5.11749 0 8.33328 0C8.46664 0 8.61084 0.00244141 8.7442 0.0250244C9.08493 0.0816345 9.31503 0.404205 9.25827 0.744171C9.20166 1.08414 8.87329 1.31424 8.53912 1.25748C8.47244 1.24664 8.3992 1.25 8.33328 1.25C5.80673 1.25 3.75 3.30582 3.75 5.83328V8.15826C3.75 10.1717 2.86743 12.0767 1.33087 13.3841C1.31836 13.3942 1.30753 13.4033 1.2941 13.4125C1.27167 13.4409 1.25 13.4842 1.25 13.5417C1.25 13.6549 1.34506 13.75 1.45828 13.75H15.2083C15.3217 13.75 15.4167 13.6549 15.4167 13.5417C15.4167 13.4833 15.3951 13.4409 15.3717 13.4125C15.3592 13.4033 15.3484 13.3942 15.3358 13.3841C13.7984 12.0758 12.9167 10.1717 12.9167 8.15826V7.25006C12.9167 6.90506 13.1967 6.62506 13.5417 6.62506C13.8867 6.62506 14.1667 6.90506 14.1667 7.25006V8.15826C14.1667 9.78088 14.8676 11.3174 16.0925 12.3859C16.115 12.4008 16.1366 12.4167 16.1566 12.4342C16.4809 12.7109 16.6667 13.1149 16.6667 13.5417C16.6667 14.3459 16.0126 15 15.2083 15Z" fill="#6D717F"/>
</svg>
