<svg width="20" height="20" viewBox="0 0 20 20" fill="none" xmlns="http://www.w3.org/2000/svg">
<path d="M10 1.66699C14.6024 1.66699 18.333 5.39763 18.333 10C18.333 14.6024 14.6024 18.333 10 18.333C5.39763 18.333 1.66699 14.6024 1.66699 10C1.66699 5.39763 5.39763 1.66699 10 1.66699ZM10 3.33301C6.3181 3.33301 3.33301 6.3181 3.33301 10C3.33301 13.6819 6.3181 16.667 10 16.667C13.6819 16.667 16.667 13.6819 16.667 10C16.667 6.3181 13.6819 3.33301 10 3.33301ZM12.9883 5.9082C13.3045 5.76446 13.6772 5.83152 13.9229 6.07715C14.1685 6.32278 14.2355 6.69548 14.0918 7.01172L12.0088 11.5947C11.9254 11.7781 11.7781 11.9254 11.5947 12.0088L7.01172 14.0918C6.69548 14.2355 6.32278 14.1685 6.07715 13.9229C5.83152 13.6772 5.76446 13.3045 5.9082 12.9883L7.99121 8.40527C8.07458 8.22185 8.22185 8.07458 8.40527 7.99121L12.9883 5.9082ZM9.37891 9.37891L8.34473 11.6553L10.6211 10.6211L11.6553 8.34473L9.37891 9.37891Z" fill="#343A40"/>
</svg>
