<svg width="20" height="20" viewBox="0 0 20 20" fill="none" xmlns="http://www.w3.org/2000/svg">
<g clip-path="url(#clip0_5485_5501)">
<path d="M19.675 9.03001L18.2433 6.03667C18.0617 5.65751 17.625 5.47167 17.2275 5.60584L9.99667 8.01917L2.75583 5.60667C2.35833 5.47417 1.92167 5.65834 1.74 6.03834L0.363333 8.93251C-0.0341668 9.59251 -0.109167 10.385 0.1575 11.1067C0.415833 11.8067 0.960833 12.3492 1.65833 12.6025L1.65333 14.5317C1.65333 16.3292 2.7975 17.9192 4.5025 18.4875L8.14 19.7008C8.735 19.8983 9.36 19.9975 9.985 19.9975C10.61 19.9975 11.235 19.8983 11.83 19.7L15.4708 18.4867C17.1742 17.9183 18.3192 16.3317 18.32 14.5383L18.325 12.6033C19.03 12.3567 19.5817 11.8158 19.8408 11.1133C20.1042 10.3983 20.03 9.61334 19.675 9.03001ZM1.82833 9.72167L2.92667 7.41917L8.81417 9.38084L7.46417 12.0942C7.2625 12.4325 6.85667 12.5808 6.48583 12.4575L2.25167 11.045C2.00333 10.9625 1.81 10.775 1.71917 10.53C1.62917 10.2858 1.655 10.0167 1.82833 9.72167ZM5.03 16.9075C4.00667 16.5658 3.31917 15.6117 3.32 14.5342L3.32333 13.1592L5.96 14.0383C7.08167 14.41 8.2875 13.9633 8.92583 12.895L9.15667 12.4325L9.15333 18.2483C8.98917 18.215 8.8275 18.1725 8.66833 18.12L5.03083 16.9075H5.03ZM14.9433 16.9058L11.3025 18.1192C11.1442 18.1717 10.9825 18.215 10.8192 18.2483L10.8225 12.4192L11.0883 12.9525C11.5525 13.7258 12.365 14.1692 13.2233 14.1692C13.4883 14.1692 13.7592 14.1267 14.0233 14.0383L16.6567 13.1608L16.6533 14.5367C16.6533 15.6133 15.9658 16.565 14.9433 16.9058ZM18.2767 10.535C18.1892 10.7725 18.0008 10.955 17.7608 11.0358L13.4958 12.4567C13.1308 12.5792 12.7167 12.4267 12.5492 12.1525L11.1708 9.38417L17.0575 7.42001L18.2092 9.82001C18.3392 10.0375 18.365 10.2975 18.2767 10.535ZM4.345 4.91334C4.01917 4.58751 4.01917 4.06084 4.345 3.73501L7.5925 0.48834C8.24167 -0.160827 9.3 -0.160827 9.94917 0.48834L11.2792 1.81834C11.9067 1.49751 12.7275 1.59334 13.24 2.10584L15.1192 3.98501C15.445 4.31084 15.445 4.83751 15.1192 5.16334C14.7933 5.48917 14.2667 5.48917 13.9408 5.16334L12.0617 3.28417L9.43583 5.91001C9.27333 6.07251 9.06 6.15417 8.84667 6.15417C8.63333 6.15417 8.42 6.07251 8.2575 5.91001C7.93167 5.58417 7.93167 5.05751 8.2575 4.73167L10.0467 2.94251L8.77167 1.66751L5.52417 4.91417C5.36167 5.07667 5.14833 5.15834 4.935 5.15834C4.72167 5.15834 4.50833 5.07667 4.34583 4.91417L4.345 4.91334Z" fill="#343A40"/>
</g>
<defs>
<clipPath id="clip0_5485_5501">
<rect width="20" height="20" fill="white"/>
</clipPath>
</defs>
</svg>
