<svg width="20" height="20" viewBox="0 0 20 20" fill="none" xmlns="http://www.w3.org/2000/svg">
<g clip-path="url(#clip0_5485_5504)">
<path d="M10 12.5C11.3807 12.5 12.5 11.3807 12.5 10C12.5 8.61929 11.3807 7.5 10 7.5C8.61929 7.5 7.5 8.61929 7.5 10C7.5 11.3807 8.61929 12.5 10 12.5Z" stroke="#343A40" stroke-width="1.5" stroke-linecap="round" stroke-linejoin="round"/>
<path d="M16.352 8.66284L15.4373 6.454L16.6667 5.00001L15 3.33334L13.5539 4.56913L11.2982 3.64145L10.7795 1.66667H9.15084L8.62426 3.66761L6.42036 4.59664L5.00002 3.33334L3.33335 5.00001L4.54449 6.49071L3.64377 8.70528L1.66669 9.16667V10.8333L3.66762 11.3796L4.59648 13.5831L3.33335 15L5.00002 16.6667L6.49266 15.4502L8.6642 16.3436L9.16669 18.3333H10.8334L11.3371 16.3443L13.546 15.4296C13.9141 15.6928 15 16.6667 15 16.6667L16.6667 15L15.4299 13.5412L16.3449 11.3317L18.3332 10.8143L18.3334 9.16667L16.352 8.66284Z" stroke="#343A40" stroke-width="1.5" stroke-linecap="round" stroke-linejoin="round"/>
</g>
<defs>
<clipPath id="clip0_5485_5504">
<rect width="20" height="20" fill="white"/>
</clipPath>
</defs>
</svg>
