<svg width="5" height="16" viewBox="0 0 5 16" fill="none" xmlns="http://www.w3.org/2000/svg">
<path d="M2.0126 12C1.47884 12 0.966943 12.2107 0.589518 12.5858C0.212093 12.9609 5.67436e-05 13.4696 5.67436e-05 14C5.67436e-05 14.5304 0.212093 15.0391 0.589518 15.4142C0.966943 15.7893 1.47884 16 2.0126 16C2.54636 16 3.05826 15.7893 3.43569 15.4142C3.81311 15.0391 4.02515 14.5304 4.02515 14C4.02515 13.4696 3.81311 12.9609 3.43569 12.5858C3.05826 12.2107 2.54636 12 2.0126 12ZM2.0126 6C1.47884 6 0.966943 6.21071 0.589518 6.58579C0.212093 6.96086 5.67436e-05 7.46957 5.67436e-05 8C5.67436e-05 8.53043 0.212093 9.03914 0.589518 9.41421C0.966943 9.78929 1.47884 10 2.0126 10C2.54636 10 3.05826 9.78929 3.43569 9.41421C3.81311 9.03914 4.02515 8.53043 4.02515 8C4.02515 7.46957 3.81311 6.96086 3.43569 6.58579C3.05826 6.21071 2.54636 6 2.0126 6ZM5.67436e-05 2C5.67436e-05 1.46957 0.212093 0.96086 0.589518 0.585787C0.966943 0.210714 1.47884 0 2.0126 0C2.54636 0 3.05826 0.210714 3.43569 0.585787C3.81311 0.96086 4.02515 1.46957 4.02515 2C4.02515 2.53043 3.81311 3.03914 3.43569 3.41421C3.05826 3.78929 2.54636 4 2.0126 4C1.47884 4 0.966943 3.78929 0.589518 3.41421C0.212093 3.03914 5.67436e-05 2.53043 5.67436e-05 2Z" fill="#667085"/>
</svg>
