<svg width="20" height="20" viewBox="0 0 20 20" fill="none" xmlns="http://www.w3.org/2000/svg">
<path d="M1.6084 10.0002C1.6084 6.20936 1.6084 4.31392 2.78571 3.13581C3.96463 1.9585 5.85926 1.9585 9.65014 1.9585C13.441 1.9585 15.3365 1.9585 16.5138 3.13581C17.6919 4.31473 17.6919 6.20936 17.6919 10.0002C17.6919 13.7911 17.6919 15.6866 16.5138 16.8639C15.3373 18.042 13.441 18.042 9.65014 18.042C5.85926 18.042 3.96382 18.042 2.78571 16.8639C1.6084 15.6874 1.6084 13.7911 1.6084 10.0002Z" stroke="#E98841" stroke-width="1.15801"/>
<path d="M5.62927 8.39209L7.47324 10.2361C7.62405 10.3868 7.82856 10.4715 8.0418 10.4715C8.25503 10.4715 8.45954 10.3868 8.61035 10.2361L9.88577 8.96064C10.0366 8.80988 10.2411 8.72519 10.4543 8.72519C10.6676 8.72519 10.8721 8.80988 11.0229 8.96064L13.671 11.6088M13.671 11.6088V9.59835M13.671 11.6088H11.6606" stroke="#E98841" stroke-width="1.15801" stroke-linecap="round" stroke-linejoin="round"/>
</svg>
