<svg width="20" height="20" viewBox="0 0 20 20" fill="none" xmlns="http://www.w3.org/2000/svg">
<path d="M19.3682 13.75C19.5339 13.75 19.6929 13.8158 19.8101 13.9331C19.9273 14.0503 19.9932 14.2092 19.9932 14.375C19.9933 15.1684 19.6916 15.9321 19.1494 16.5113C18.6071 17.0905 17.8648 17.4417 17.0732 17.4937L16.8682 17.5H12.1269L13.5607 18.9325C13.664 19.0361 13.7277 19.1726 13.7408 19.3183C13.7538 19.4641 13.7153 19.6098 13.6319 19.73L13.5607 19.8175C13.4571 19.9208 13.3205 19.9846 13.1748 19.9976C13.0291 20.0106 12.8834 19.9721 12.7632 19.8888L12.6757 19.8175L10.1757 17.3175C10.0723 17.2139 10.0086 17.0774 9.99556 16.9317C9.98254 16.7859 10.0211 16.6402 10.1044 16.52L10.1757 16.4325L12.6757 13.9325C12.7859 13.8218 12.9336 13.7563 13.0897 13.7491C13.2458 13.7419 13.3989 13.7934 13.5189 13.8935C13.6389 13.9935 13.717 14.1349 13.738 14.2898C13.7589 14.4446 13.721 14.6017 13.6319 14.73L13.5607 14.8175L12.1269 16.25H16.8682C17.3654 16.25 17.8424 16.0525 18.194 15.7008C18.5456 15.3492 18.7432 14.8723 18.7432 14.375C18.7432 14.2092 18.809 14.0503 18.9262 13.9331C19.0434 13.8158 19.2024 13.75 19.3682 13.75ZM7.49316 8.82227e-08C8.58395 -0.000167208 9.66165 0.237601 10.6511 0.696725C11.6406 1.15585 12.518 1.82528 13.2222 2.65833C13.9263 3.49139 14.4403 4.46801 14.7283 5.52011C15.0162 6.57221 15.0712 7.67446 14.8894 8.75H13.6182C13.8866 7.43367 13.7238 6.06587 13.1538 4.84935C12.5838 3.63283 11.637 2.63234 10.4538 1.99619C9.2705 1.36004 7.91375 1.12209 6.58463 1.3176C5.2555 1.51312 4.02475 2.13169 3.0748 3.08164C2.12485 4.03159 1.50628 5.26234 1.31076 6.59147C1.11524 7.92059 1.3532 9.27734 1.98935 10.4606C2.6255 11.6439 3.62599 12.5907 4.84251 13.1606C6.05903 13.7306 7.42683 13.8935 8.74316 13.625V14.8962C7.72031 15.0682 6.67292 15.0261 5.66717 14.7726C4.66142 14.5191 3.71918 14.0598 2.89998 13.4237C2.08078 12.7875 1.40243 11.9884 0.907796 11.0767C0.413163 10.165 0.112998 9.16071 0.0262677 8.12715C-0.0604625 7.09358 0.0681275 6.05326 0.403913 5.07192C0.739698 4.09059 1.27538 3.18956 1.9771 2.42579C2.67883 1.66201 3.53135 1.05208 4.48079 0.634548C5.43024 0.217013 6.45596 0.000946402 7.49316 8.82227e-08ZM17.2232 7.61125L17.3107 7.6825L19.8107 10.1825C19.914 10.2861 19.9777 10.4226 19.9908 10.5683C20.0038 10.7141 19.9653 10.8598 19.8819 10.98L19.8107 11.0675L17.3107 13.5675C17.2004 13.6782 17.0527 13.7437 16.8966 13.7509C16.7405 13.7581 16.5874 13.7066 16.4674 13.6065C16.3474 13.5065 16.2693 13.3651 16.2484 13.2102C16.2274 13.0554 16.2653 12.8983 16.3544 12.77L16.4257 12.6825L17.8594 11.25H13.1182C12.6209 11.25 12.144 11.4475 11.7923 11.7992C11.4407 12.1508 11.2432 12.6277 11.2432 13.125C11.2432 13.2908 11.1773 13.4497 11.0601 13.5669C10.9429 13.6842 10.7839 13.75 10.6182 13.75C10.4524 13.75 10.2934 13.6842 10.1762 13.5669C10.059 13.4497 9.99316 13.2908 9.99316 13.125C9.99304 12.3316 10.2947 11.5679 10.837 10.9887C11.3792 10.4095 12.1215 10.0583 12.9132 10.0063L13.1182 10L17.8594 9.99875L16.4257 8.5675C16.3223 8.46393 16.2586 8.32739 16.2456 8.18166C16.2325 8.03593 16.2711 7.89025 16.3544 7.77L16.4257 7.6825C16.5292 7.57916 16.6658 7.51542 16.8115 7.5024C16.9572 7.48938 17.1029 7.5279 17.2232 7.61125ZM8.11816 2.5C8.26444 2.49995 8.4061 2.55121 8.51848 2.64486C8.63086 2.73851 8.70683 2.86861 8.73316 3.0125L8.74316 3.125V8.125C8.74321 8.27128 8.69194 8.41295 8.5983 8.52532C8.50465 8.6377 8.37455 8.71367 8.23066 8.74L8.11816 8.75H4.36816C4.21198 8.75029 4.06135 8.69209 3.94593 8.58686C3.83051 8.48164 3.75868 8.33702 3.74456 8.18147C3.73045 8.02593 3.77509 7.87074 3.86968 7.74646C3.96428 7.62218 4.10197 7.53783 4.25566 7.51L4.36816 7.5H7.49316V3.125C7.49311 2.97872 7.54437 2.83705 7.63802 2.72468C7.73167 2.6123 7.86177 2.53633 8.00566 2.51L8.11816 2.5Z" fill="#667085"/>
</svg>
