<svg width="32" height="32" viewBox="0 0 32 32" fill="none" xmlns="http://www.w3.org/2000/svg">
<path d="M5.3335 22.6668L10.5898 17.9362C11.3804 17.2246 12.5897 17.2564 13.3419 18.0086L15.3335 20.0002L20.586 14.7477C21.367 13.9667 22.6333 13.9667 23.4144 14.7477L26.6668 18.0002M14.6668 12.0002C14.6668 12.7365 14.0699 13.3335 13.3335 13.3335C12.5971 13.3335 12.0002 12.7365 12.0002 12.0002C12.0002 11.2638 12.5971 10.6668 13.3335 10.6668C14.0699 10.6668 14.6668 11.2638 14.6668 12.0002ZM7.3335 26.6668H24.6668C25.7714 26.6668 26.6668 25.7714 26.6668 24.6668V7.3335C26.6668 6.22893 25.7714 5.3335 24.6668 5.3335H7.3335C6.22893 5.3335 5.3335 6.22893 5.3335 7.3335V24.6668C5.3335 25.7714 6.22893 26.6668 7.3335 26.6668Z" stroke="#195038" stroke-width="1.4" stroke-linecap="round" stroke-linejoin="round"/>
</svg>
