<svg width="20" height="20" viewBox="0 0 20 20" fill="none" xmlns="http://www.w3.org/2000/svg">
<g clip-path="url(#clip0_5511_3517)">
<path d="M2.5 18.3333H8.33333V20H2.5C1.12167 20 0 18.8783 0 17.5V1.66667H4.30917C4.65333 0.696667 5.58 0 6.66667 0H8.33333C9.42 0 10.3467 0.696667 10.6908 1.66667H15V9.16667H13.3333V3.33333H9.16667V2.5C9.16667 2.04083 8.7925 1.66667 8.33333 1.66667H6.66667C6.2075 1.66667 5.83333 2.04083 5.83333 2.5V3.33333H1.66667V17.5C1.66667 17.96 2.04083 18.3333 2.5 18.3333ZM5.1375 7.39083L4.10333 6.3975L2.94833 7.59917L4.15667 8.76C4.42833 9.03167 4.785 9.16667 5.14083 9.16667C5.495 9.16667 5.8475 9.0325 6.11417 8.76583L8.41333 6.51417L7.2475 5.32333L5.13667 7.39L5.1375 7.39083ZM5.1375 12.3908L4.10333 11.3975L2.94833 12.5983L4.15583 13.7592C4.41833 14.0217 4.7675 14.1667 5.13833 14.1667C5.50917 14.1667 5.85917 14.0217 6.11417 13.7667L8.41333 11.515L7.2475 10.3242L5.13667 12.3917L5.1375 12.3908ZM20 13.3333V20H10V13.3333C10 11.955 11.1217 10.8333 12.5 10.8333H17.5C18.8783 10.8333 20 11.955 20 13.3333ZM18.3333 13.3333C18.3333 12.8733 17.96 12.5 17.5 12.5H12.5C12.04 12.5 11.6667 12.8733 11.6667 13.3333V18.3333H18.3333V13.3333ZM13.3333 15.8333H16.6667V14.1667H13.3333V15.8333ZM11.6667 7.5H9.6275L7.92583 9.16667H11.6667V7.5Z" fill="#195038"/>
</g>
<defs>
<clipPath id="clip0_5511_3517">
<rect width="20" height="20" fill="white"/>
</clipPath>
</defs>
</svg>
