<svg width="20" height="20" viewBox="0 0 20 20" fill="none" xmlns="http://www.w3.org/2000/svg">
<g clip-path="url(#clip0_5511_3515)">
<path d="M7.5 18.3333C7.5 19.2542 6.75417 20 5.83333 20C4.9125 20 4.16667 19.2542 4.16667 18.3333C4.16667 17.4125 4.9125 16.6667 5.83333 16.6667C6.75417 16.6667 7.5 17.4125 7.5 18.3333ZM14.1667 16.6667C13.2458 16.6667 12.5 17.4125 12.5 18.3333C12.5 19.2542 13.2458 20 14.1667 20C15.0875 20 15.8333 19.2542 15.8333 18.3333C15.8333 17.4125 15.0875 16.6667 14.1667 16.6667ZM4.51583 10.8333L3.73167 4.16667H8.39083C8.46333 3.58417 8.60917 3.02583 8.8225 2.5H3.535L3.50083 2.2075C3.3525 0.948333 2.285 0 1.01833 0H0V1.66667H1.01833C1.44083 1.66667 1.79667 1.98333 1.84583 2.40333L3.16583 13.6258C3.31417 14.885 4.38167 15.8333 5.64833 15.8333H16.6667V14.1667H5.64833C5.22583 14.1667 4.87 13.85 4.82083 13.43L4.71167 12.5H18.1958L18.4983 10.8333H4.51583ZM20 5C20 7.7575 17.7575 10 15 10C12.2425 10 10 7.7575 10 5C10 2.2425 12.2425 0 15 0C17.7575 0 20 2.2425 20 5ZM18.3333 5C18.3333 3.16167 16.8383 1.66667 15 1.66667C13.1617 1.66667 11.6667 3.16167 11.6667 5C11.6667 6.83833 13.1617 8.33333 15 8.33333C16.8383 8.33333 18.3333 6.83833 18.3333 5ZM15.8333 2.5H14.1667V5.345L16.0775 7.25583L17.2558 6.0775L15.8333 4.655V2.5Z" fill="#195038"/>
</g>
<defs>
<clipPath id="clip0_5511_3515">
<rect width="20" height="20" fill="white"/>
</clipPath>
</defs>
</svg>
